# xmcd
#
# Track frame offsets:
#	150
#	9791
#	23625
#	38516
#	52350
#	69303
#	83352
#	96835
#	109698
#	127701
#	144004
#	159252
#	171147
#	181577
#
# Disc length: 2554 seconds
#
# Revision: 0
# Processed by: cddbd v1.5.2PL0 Copyright (c) Steve Scherf et al.
# Submitted via: dBpowerAMP V4.0
#
DISCID=9009f80e
DTITLE=Various Artist - Sveriges Bästa Dansband 2008-08
DYEAR=2007
DGENRE=Dance Hall
TTITLE0=Christer Sjögren - Hurt
TTITLE1=Hans Martin - Vaya con dios
TTITLE2=Lasse Berghagen - Leidi lei
TTITLE3=Göran Lindbergs Orkester - Mitt hjärta slog
TTITLE4=Maria Pensar - A moment like this
TTITLE5=Emil Sigfridsson - Anthem
TTITLE6=Lena Pålssons - Om vi tror på varann
TTITLE7=Andreas Wistrand - Sommartid
TTITLE8=Jenny Sahléns - Aldrig mer
TTITLE9=Erik Lihms - Främling
TTITLE10=Lotta Engbergs - Främling
TTITLE11=Kikki Danielssons - Stand by your man
TTITLE12=Schytts - Emma
TTITLE13=Roland Cedermark - Brudvals
EXTD=
EXTT0=
EXTT1=
EXTT2=
EXTT3=
EXTT4=
EXTT5=
EXTT6=
EXTT7=
EXTT8=
EXTT9=
EXTT10=
EXTT11=
EXTT12=
EXTT13=
PLAYORDER=
